<?xml version="1.0" encoding="utf-8"?>
<svg xmlns="http://www.w3.org/2000/svg" viewBox="0 0 455 100">
  <desc>Created with Fabric.js 3.6.3</desc>
  <g transform="matrix(1, 0, 0, 1, 283.906132, 74.006265)" style="">
    <path fill="#ffffff" opacity="1" d="M-148.68-17.43L-112.69-17.43L-112.69-11.23L-157.31-11.23L-157.31-16.92L-123.19-61.06L-154.41-61.06L-154.41-67.27L-114.56-67.27L-114.56-61.74L-148.68-17.43Z"/>
    <path fill="#ffffff" opacity="1" d="M-70.14-27.61L-95.67-27.61L-102.11-11.23L-109.99-11.23L-87.12-67.27L-78.49-67.27L-55.98-11.23L-63.73-11.23L-70.14-27.61ZM-82.90-61.54L-82.90-61.54Q-83.58-59.31-84.51-56.59Q-85.45-53.86-86.24-51.79L-86.24-51.79L-93.36-33.54L-72.40-33.54L-79.60-52.03Q-80.16-53.43-81.07-55.97Q-81.99-58.52-82.90-61.54Z"/>
    <path fill="#ffffff" opacity="1" d="M-5.79-27.02L-5.79-27.02Q-5.79-19.54-11.24-15.38Q-16.68-11.23-26.39-11.23L-26.39-11.23L-49.14-11.23L-49.14-67.27L-28.77-67.27Q-18.91-67.27-13.98-63.86Q-9.05-60.46-9.05-53.66L-9.05-53.66Q-9.05-48.69-11.83-45.31Q-14.62-41.93-19.71-40.78L-19.71-40.78Q-13.02-39.98-9.41-36.30Q-5.79-32.63-5.79-27.02ZM-16.68-52.75L-16.68-52.75Q-16.68-57.28-19.79-59.23Q-22.89-61.18-28.77-61.18L-28.77-61.18L-41.54-61.18L-41.54-43.44L-28.77-43.44Q-22.69-43.44-19.69-45.73Q-16.68-48.02-16.68-52.75ZM-13.46-27.61L-13.46-27.61Q-13.46-37.52-27.38-37.52L-27.38-37.52L-41.54-37.52L-41.54-17.31L-26.79-17.31Q-19.83-17.31-16.64-19.90Q-13.46-22.48-13.46-27.61Z"/>
    <path fill="#ffffff" opacity="1" d="M57.97-39.51L57.97-39.51Q57.97-30.52 54.57-24.00Q51.16-17.47 44.92-13.95Q38.68-10.43 30.13-10.43L30.13-10.43Q21.54-10.43 15.31-13.93Q9.09-17.43 5.73-23.96Q2.37-30.48 2.37-39.51L2.37-39.51Q2.37-48.49 5.69-54.88Q9.01-61.26 15.23-64.68Q21.46-68.10 30.21-68.10L30.21-68.10Q38.80-68.10 45.02-64.72Q51.24-61.34 54.60-54.96Q57.97-48.57 57.97-39.51ZM50.21-39.51L50.21-39.51Q50.21-49.97 44.98-55.93Q39.75-61.90 30.21-61.90L30.21-61.90Q20.58-61.90 15.33-56.01Q10.08-50.12 10.08-39.51L10.08-39.51Q10.08-32.51 12.47-27.36Q14.85-22.21 19.35-19.40Q23.84-16.60 30.13-16.60L30.13-16.60Q39.83-16.60 45.02-22.58Q50.21-28.57 50.21-39.51Z"/>
    <path fill="#ffffff" opacity="1" d="M109.75-61.06L90.50-61.06L90.50-11.23L82.94-11.23L82.94-61.06L63.69-61.06L63.69-67.27L109.75-67.27L109.75-61.06Z"/>
    <path fill="#ffffff" opacity="1" d="M145.58-27.61L120.05-27.61L113.60-11.23L105.73-11.23L128.60-67.27L137.23-67.27L159.74-11.23L151.98-11.23L145.58-27.61ZM132.81-61.54L132.81-61.54Q132.14-59.31 131.20-56.59Q130.27-53.86 129.47-51.79L129.47-51.79L122.35-33.54L143.31-33.54L136.11-52.03Q135.56-53.43 134.64-55.97Q133.73-58.52 132.81-61.54Z"/>
  </g>
  <g transform="matrix(1, 0, 0, 1, 290.285344, 90.542703)" style="">
    <path fill="#ffffff" opacity="1" d="M-155.12 5.13C-155.75 5.90-156.49 6.01-158.20 6.01L-158.33 7.20C-154.06 7.20-154.01 6.10-152.26 2.57L-147.76-7.38L-149.58-7.38L-153.85 2.66L-154.28 3.65L-159.73-7.38L-161.39-7.38Z"/>
    <path fill="#ffffff" opacity="1" d=""/>
    <path fill="#ffffff" opacity="1" d="M-129.64 7.07C-125.37 7.07-124.02 6.39-124.02 3.33C-124.02 1.08-124.78 0.43-126.00-0.18C-124.78-0.81-124.15-1.46-124.15-3.71C-124.15-6.77-125.46-7.38-129.73-7.38L-135.92-7.38L-135.92 7.07ZM-134.30 5.79L-134.30 0.45L-129.33 0.45C-126.70 0.48-125.66 0.41-125.66 3.33C-125.66 5.81-126.76 5.79-129.60 5.79ZM-134.30-0.83L-134.30-6.09L-129.69-6.09C-126.85-6.09-125.80-5.89-125.80-3.64C-125.80-0.94-126.70-0.85-129.33-0.83Z"/>
    <path fill="#ffffff" opacity="1" d="M-108.43 5.88C-109.39 5.63-109.78 4.89-109.78 2.64L-109.78 0.12L-109.78-0.24C-109.78-6.61-111.28-7.67-116.14-7.67C-118.24-7.67-120.08-7.31-121.32-6.72L-120.58-5.53C-119.72-5.82-118.01-6.39-116.19-6.39C-112.79-6.39-111.64-6.05-111.46-1.62L-116.37-1.62C-119.81-1.62-122.17-0.65-122.17 2.84C-122.17 6.33-119.81 7.29-116.37 7.29C-113.87 7.29-112.12 6.42-111.06 4.84C-110.81 6.30-110.18 6.89-108.67 7.09ZM-111.44-0.27C-111.44 3.78-112.07 5.99-116.35 5.99C-118.87 5.99-120.64 5.65-120.64 2.84C-120.64 0.03-118.89-0.31-116.37-0.31L-111.44-0.31Z"/>
    <path fill="#ffffff" opacity="1" d="M-95.13 5.18C-95.98 5.47-97.81 6.08-99.63 6.08C-102.89 6.08-105.28 5.61-105.28-0.15C-105.28-5.87-102.89-6.39-99.63-6.39C-97.81-6.39-96.21-5.87-95.35-5.58L-94.61-6.77C-95.85-7.35-97.58-7.67-99.67-7.67C-104.08-7.67-106.94-6.52-106.94-0.15C-106.94 6.21-104.08 7.36-99.67 7.36C-97.58 7.36-95.62 6.96-94.39 6.37Z"/>
    <path fill="#ffffff" opacity="1" d=""/>
    <path fill="#ffffff" opacity="1" d="M-69.30 9.63L-69.30 5.74L-70.60 5.74L-70.60-7.38L-80.55-7.38L-80.95 2.19C-81.07 4.41-81.49 5.47-82.35 5.74L-82.84 5.74L-82.84 9.50L-81.56 9.27L-81.56 7.07L-70.60 7.07L-70.60 9.86ZM-72.20 5.74L-80.32 5.74C-79.74 5.04-79.45 3.92-79.36 2.10L-78.95-6.05L-72.20-6.05Z"/>
    <path fill="#ffffff" opacity="1" d="M-60.07-6.41C-57.22-6.41-54.49-6.39-54.49-0.18C-54.49 6.03-57.17 6.06-60.07 6.06C-63.02 6.06-65.65 6.03-65.65-0.18C-65.65-6.39-63.02-6.41-60.07-6.41ZM-67.32-0.18C-67.32 6.30-64.08 7.32-60.07 7.32C-56.07 7.32-52.83 6.30-52.83-0.18C-52.83-6.66-56.07-7.67-60.07-7.67C-64.08-7.67-67.32-6.66-67.32-0.18Z"/>
    <path fill="#ffffff" opacity="1" d="M-34.85 7.07L-34.85-7.38L-37.28-7.38L-41.74 3.02L-42.68 5.74L-43.63 3.02L-48.08-7.38L-50.51-7.38L-50.51 7.07L-48.98 7.07L-48.98-5.58L-48.91-5.58L-43.56 7.07L-41.80 7.07L-36.45-5.58L-36.38-5.58L-36.38 7.07Z"/>
    <path fill="#ffffff" opacity="1" d="M-18.97 5.88C-19.93 5.63-20.32 4.89-20.32 2.64L-20.32 0.12L-20.32-0.24C-20.32-6.61-21.82-7.67-26.68-7.67C-28.78-7.67-30.62-7.31-31.86-6.72L-31.12-5.53C-30.26-5.82-28.55-6.39-26.73-6.39C-23.33-6.39-22.18-6.05-22.00-1.62L-26.91-1.62C-30.35-1.62-32.71-0.65-32.71 2.84C-32.71 6.33-30.35 7.29-26.91 7.29C-24.41 7.29-22.66 6.42-21.60 4.84C-21.35 6.30-20.72 6.89-19.21 7.09ZM-21.98-0.27C-21.98 3.78-22.61 5.99-26.89 5.99C-29.41 5.99-31.18 5.65-31.18 2.84C-31.18 0.03-29.43-0.31-26.91-0.31L-21.98-0.31Z"/>
  </g>
  <g transform="matrix(1.236475, 0, 0, 1.236475, 54.161496, 51.355256)">
    <linearGradient id="SVGID_42619" gradientUnits="userSpaceOnUse" gradientTransform="matrix(1 0 0 1 8.341683275838093 14.607943775366344)" x1="0" y1="0" x2="82.86984264089892" y2="75.79465622463366">
      <stop offset="0" style="stop-color:rgb(125,20,29);stop-opacity: 1"/>
      <stop offset="1" style="stop-color:rgb(255,30,39);stop-opacity: 1"/>
    </linearGradient>
    <path style="stroke: none; stroke-width: 0; stroke-dasharray: none; stroke-linecap: butt; stroke-dashoffset: 0; stroke-linejoin: miter; stroke-miterlimit: 4; fill: url(#SVGID_42619); fill-rule: nonzero; opacity: 1;" transform=" translate(-49.776604596287555, -52.50527188768317)" d="m 83.367 56.805 c -5.1133 5.1094 -11.566 11.566 -17.48 17.484 v -16.621 h 7.8281 l -23.938 -23.938 l -23.938 23.938 h 7.8281 v 16.621 c -5.9141 -5.918 -12.371 -12.371 -17.48 -17.484 c -10.449 -10.449 -10.227 -25.684 -0.72656 -35.133 c 9.5 -9.4531 24.867 -9.4102 34.316 0.089844 c 9.4531 -9.5039 24.816 -9.543 34.316 -0.089844 c 9.5 9.4492 9.7227 24.684 -0.72656 35.133 z m -39.773 27.414 c 2.9883 2.9883 5.2344 5.2383 6.1836 6.1836 c 0.94922 -0.94922 3.1953 -3.1953 6.1836 -6.1836 v -14.145 h -12.363 v 14.145 z" stroke-linecap="round"/>
  </g>
  <g transform="matrix(1, 0, 0, 1, 220.143436, 42.664342)" style="">
    <path fill="#545454" opacity="1" d=""/>
  </g>
</svg>