<?xml version="1.0" encoding="utf-8"?>
<svg xmlns="http://www.w3.org/2000/svg" viewBox="0 0 455 101">
  <desc>Created with Fabric.js 3.6.3</desc>
  <desc>Created with Fabric.js 3.6.3</desc>
  <desc>Created with Fabric.js 3.6.3</desc>
  <desc>Created with Fabric.js 3.6.3</desc>
  <g transform="matrix(1, 0, 0, 1, 270.862248, 40.004593)" style="">
    <path fill="#ffffff" opacity="1" d="M-148.68 19.38L-112.69 19.38L-112.69 25.59L-157.31 25.59L-157.31 19.90L-123.19-24.25L-154.41-24.25L-154.41-30.45L-114.56-30.45L-114.56-24.92L-148.68 19.38Z"/>
    <path fill="#ffffff" opacity="1" d="M-70.14 9.20L-95.67 9.20L-102.11 25.59L-109.99 25.59L-87.12-30.45L-78.49-30.45L-55.98 25.59L-63.73 25.59L-70.14 9.20ZM-82.90-24.72L-82.90-24.72Q-83.58-22.50-84.51-19.77Q-85.45-17.05-86.24-14.98L-86.24-14.98L-93.36 3.28L-72.40 3.28L-79.60-15.22Q-80.16-16.61-81.07-19.16Q-81.99-21.70-82.90-24.72Z"/>
    <path fill="#ffffff" opacity="1" d="M-5.79 9.80L-5.79 9.80Q-5.79 17.27-11.24 21.43Q-16.68 25.59-26.39 25.59L-26.39 25.59L-49.14 25.59L-49.14-30.45L-28.77-30.45Q-18.91-30.45-13.98-27.05Q-9.05-23.65-9.05-16.85L-9.05-16.85Q-9.05-11.88-11.83-8.50Q-14.62-5.12-19.71-3.96L-19.71-3.96Q-13.02-3.17-9.41 0.51Q-5.79 4.19-5.79 9.80ZM-16.68-15.93L-16.68-15.93Q-16.68-20.47-19.79-22.42Q-22.89-24.37-28.77-24.37L-28.77-24.37L-41.54-24.37L-41.54-6.63L-28.77-6.63Q-22.69-6.63-19.69-8.91Q-16.68-11.20-16.68-15.93ZM-13.46 9.20L-13.46 9.20Q-13.46-0.70-27.38-0.70L-27.38-0.70L-41.54-0.70L-41.54 19.50L-26.79 19.50Q-19.83 19.50-16.64 16.92Q-13.46 14.33-13.46 9.20Z"/>
    <path fill="#ffffff" opacity="1" d="M57.97-2.69L57.97-2.69Q57.97 6.30 54.57 12.82Q51.16 19.34 44.92 22.86Q38.68 26.38 30.13 26.38L30.13 26.38Q21.54 26.38 15.31 22.88Q9.09 19.38 5.73 12.86Q2.37 6.34 2.37-2.69L2.37-2.69Q2.37-11.68 5.69-18.06Q9.01-24.44 15.23-27.86Q21.46-31.29 30.21-31.29L30.21-31.29Q38.80-31.29 45.02-27.90Q51.24-24.52 54.60-18.14Q57.97-11.76 57.97-2.69ZM50.21-2.69L50.21-2.69Q50.21-13.15 44.98-19.12Q39.75-25.08 30.21-25.08L30.21-25.08Q20.58-25.08 15.33-19.19Q10.08-13.31 10.08-2.69L10.08-2.69Q10.08 4.31 12.47 9.46Q14.85 14.61 19.35 17.41Q23.84 20.22 30.13 20.22L30.13 20.22Q39.83 20.22 45.02 14.23Q50.21 8.25 50.21-2.69Z"/>
    <path fill="#ffffff" opacity="1" d="M109.75-24.25L90.50-24.25L90.50 25.59L82.94 25.59L82.94-24.25L63.69-24.25L63.69-30.45L109.75-30.45L109.75-24.25Z"/>
    <path fill="#ffffff" opacity="1" d="M145.58 9.20L120.05 9.20L113.60 25.59L105.73 25.59L128.60-30.45L137.23-30.45L159.74 25.59L151.98 25.59L145.58 9.20ZM132.81-24.72L132.81-24.72Q132.14-22.50 131.20-19.77Q130.27-17.05 129.47-14.98L129.47-14.98L122.35 3.28L143.31 3.28L136.11-15.22Q135.56-16.61 134.64-19.16Q133.73-21.70 132.81-24.72Z"/>
  </g>
  <g transform="matrix(1, 0, 0, 1, 281.108158, 88.195436)" style="">
    <path fill="#ffffff" opacity="1" d="M-148.46 7.26L-148.46-7.57L-150.96-7.57L-155.53 3.10L-156.50 5.89L-157.47 3.10L-162.05-7.57L-164.54-7.57L-164.54 7.26L-162.97 7.26L-162.97-5.73L-162.90-5.73L-157.40 7.26L-155.60 7.26L-150.10-5.73L-150.04-5.73L-150.04 7.26Z"/>
    <path fill="#ffffff" opacity="1" d="M-131.62 5.18C-132.50 5.48-134.17 6.17-136.04 6.17C-140.29 6.17-141.81 5.34-141.90 0.26L-129.68 0.26L-129.68-0.34C-129.68-6.42-132.22-7.87-136.64-7.87C-140.75-7.87-143.61-6.63-143.61 0.03C-143.61 6.40-140.98 7.49-136.38 7.49C-134.23 7.49-132.13 7.00-130.86 6.40ZM-141.88-1.08C-141.65-6.33-139.43-6.58-136.59-6.58C-133.31-6.58-131.62-5.84-131.44-1.08Z"/>
    <path fill="#ffffff" opacity="1" d="M-112.13 9.89L-112.13 5.89L-113.47 5.89L-113.47-7.57L-123.68-7.57L-124.09 2.24C-124.21 4.53-124.65 5.62-125.53 5.89L-126.03 5.89L-126.03 9.75L-124.72 9.52L-124.72 7.26L-113.47 7.26L-113.47 10.12ZM-115.11 5.89L-123.45 5.89C-122.85 5.18-122.55 4.02-122.45 2.15L-122.04-6.21L-115.11-6.21Z"/>
    <path fill="#ffffff" opacity="1" d="M-95.10 7.26L-95.10-7.57L-107.16-7.57L-107.16 7.26L-105.52 7.26L-105.52-6.21L-96.74-6.21L-96.74 7.26Z"/>
    <path fill="#ffffff" opacity="1" d="M-78.26 5.18C-79.14 5.48-80.80 6.17-82.68 6.17C-86.93 6.17-88.45 5.34-88.54 0.26L-76.32 0.26L-76.32-0.34C-76.32-6.42-78.86-7.87-83.28-7.87C-87.39-7.87-90.25-6.63-90.25 0.03C-90.25 6.40-87.62 7.49-83.02 7.49C-80.87 7.49-78.77 7.00-77.50 6.40ZM-88.52-1.08C-88.29-6.33-86.07-6.58-83.23-6.58C-79.95-6.58-78.26-5.84-78.08-1.08Z"/>
    <path fill="#ffffff" opacity="1" d="M-70.18 7.26L-70.18 1.92L-65.86 1.92C-61.47 1.92-60.08 1.25-60.08-2.81C-60.08-6.88-61.47-7.57-65.86-7.57L-71.84-7.57L-71.84 7.26ZM-61.82-2.75C-61.82 0.49-62.90 0.60-65.81 0.60L-70.18 0.60L-70.18-6.26L-65.81-6.26C-62.90-6.26-61.82-6.12-61.82-2.88Z"/>
    <path fill="#ffffff" opacity="1" d="M-44.84 5.32C-45.72 5.62-47.59 6.24-49.46 6.24C-52.81 6.24-55.26 5.76-55.26-0.16C-55.26-6.03-52.81-6.56-49.46-6.56C-47.59-6.56-45.95-6.03-45.07-5.73L-44.31-6.95C-45.58-7.55-47.36-7.87-49.50-7.87C-54.03-7.87-56.97-6.70-56.97-0.16C-56.97 6.38-54.03 7.56-49.50 7.56C-47.36 7.56-45.35 7.14-44.08 6.54Z"/>
    <path fill="#ffffff" opacity="1" d="M-32.83-6.58C-29.89-6.58-27.10-6.56-27.10-0.18C-27.10 6.19-29.85 6.22-32.83 6.22C-35.85 6.22-38.55 6.19-38.55-0.18C-38.55-6.56-35.85-6.58-32.83-6.58ZM-40.26-0.18C-40.26 6.47-36.94 7.51-32.83 7.51C-28.71 7.51-25.39 6.47-25.39-0.18C-25.39-6.83-28.71-7.87-32.83-7.87C-36.94-7.87-40.26-6.83-40.26-0.18Z"/>
    <path fill="#ffffff" opacity="1" d="M-8.52 7.26L-8.52-7.57L-10.16-7.57L-10.16-1.31L-18.94-1.31L-18.94-7.57L-20.58-7.57L-20.58 7.26L-18.94 7.26L-18.94 0.05L-10.16 0.05L-10.16 7.26Z"/>
    <path fill="#ffffff" opacity="1" d="M10.21 6.03C9.22 5.78 8.82 5.02 8.82 2.71L8.82 0.12L8.82-0.25C8.82-6.79 7.28-7.87 2.29-7.87C0.14-7.87-1.76-7.50-3.03-6.90L-2.26-5.68C-1.39-5.98 0.37-6.56 2.24-6.56C5.73-6.56 6.91-6.21 7.09-1.66L2.06-1.66C-1.48-1.66-3.90-0.67-3.90 2.91C-3.90 6.49-1.48 7.49 2.06 7.49C4.62 7.49 6.42 6.59 7.51 4.97C7.76 6.47 8.41 7.07 9.96 7.28ZM7.11-0.27C7.11 3.88 6.47 6.15 2.08 6.15C-0.51 6.15-2.33 5.80-2.33 2.91C-2.33 0.03-0.53-0.32 2.06-0.32L7.11-0.32Z"/>
    <path fill="#ffffff" opacity="1" d="M27.40 7.26L27.40-7.57L17.19-7.57L16.72 2.71C16.56 6.08 15.66 6.19 13.70 6.19L13.56 7.42C17.02 7.42 18.18 6.68 18.36 2.61L18.83-6.21L25.76-6.21L25.76 7.26Z"/>
    <path fill="#ffffff" opacity="1" d=""/>
    <path fill="#ffffff" opacity="1" d="M58.00 7.26L58.00-7.57L56.36-7.57L56.36-1.31L47.59-1.31L47.59-7.57L45.95-7.57L45.95 7.26L47.59 7.26L47.59 0.05L56.36 0.05L56.36 7.26Z"/>
    <path fill="#ffffff" opacity="1" d="M76.74 6.03C75.74 5.78 75.35 5.02 75.35 2.71L75.35 0.12L75.35-0.25C75.35-6.79 73.80-7.87 68.81-7.87C66.67-7.87 64.77-7.50 63.50-6.90L64.26-5.68C65.14-5.98 66.90-6.56 68.77-6.56C72.26-6.56 73.43-6.21 73.62-1.66L68.58-1.66C65.05-1.66 62.62-0.67 62.62 2.91C62.62 6.49 65.05 7.49 68.58 7.49C71.15 7.49 72.95 6.59 74.03 4.97C74.29 6.47 74.94 7.07 76.48 7.28ZM73.64-0.27C73.64 3.88 73.00 6.15 68.61 6.15C66.02 6.15 64.19 5.80 64.19 2.91C64.19 0.03 66.00-0.32 68.58-0.32L73.64-0.32Z"/>
    <path fill="#ffffff" opacity="1" d=""/>
    <path fill="#ffffff" opacity="1" d="M107.51 9.89L107.51 5.89L106.17 5.89L106.17-7.57L95.96-7.57L95.54 2.24C95.43 4.53 94.99 5.62 94.11 5.89L93.60 5.89L93.60 9.75L94.92 9.52L94.92 7.26L106.17 7.26L106.17 10.12ZM104.53 5.89L96.19 5.89C96.79 5.18 97.09 4.02 97.18 2.15L97.60-6.21L104.53-6.21Z"/>
    <path fill="#ffffff" opacity="1" d="M119.40-6.58C122.34-6.58 125.13-6.56 125.13-0.18C125.13 6.19 122.38 6.22 119.40 6.22C116.38 6.22 113.67 6.19 113.67-0.18C113.67-6.56 116.38-6.58 119.40-6.58ZM111.97-0.18C111.97 6.47 115.29 7.51 119.40 7.51C123.52 7.51 126.84 6.47 126.84-0.18C126.84-6.83 123.52-7.87 119.40-7.87C115.29-7.87 111.97-6.83 111.97-0.18Z"/>
    <path fill="#ffffff" opacity="1" d="M147.72 7.26L147.72-7.57L145.23-7.57L140.66 3.10L139.69 5.89L138.71 3.10L134.14-7.57L131.65-7.57L131.65 7.26L133.22 7.26L133.22-5.73L133.29-5.73L138.78 7.26L140.59 7.26L146.08-5.73L146.15-5.73L146.15 7.26Z"/>
  </g>
  <g transform="matrix(1.236475, 0, 0, 1.236475, 51.987702, 48.119096)">
    <linearGradient id="SVGID_68951" gradientUnits="userSpaceOnUse" gradientTransform="matrix(1 0 0 1 8.341683275838093 14.607943775366344)" x1="0" y1="0" x2="82.86984264089892" y2="75.79465622463366">
      <stop offset="0" style="stop-color:rgb(125,20,29);stop-opacity: 1"/>
      <stop offset="1" style="stop-color:rgb(255,30,39);stop-opacity: 1"/>
    </linearGradient>
    <path style="stroke: none; stroke-width: 0; stroke-dasharray: none; stroke-linecap: butt; stroke-dashoffset: 0; stroke-linejoin: miter; stroke-miterlimit: 4; fill: url(#SVGID_68951); fill-rule: nonzero; opacity: 1;" transform=" translate(-49.776604596287555, -52.50527188768317)" d="m 83.367 56.805 c -5.1133 5.1094 -11.566 11.566 -17.48 17.484 v -16.621 h 7.8281 l -23.938 -23.938 l -23.938 23.938 h 7.8281 v 16.621 c -5.9141 -5.918 -12.371 -12.371 -17.48 -17.484 c -10.449 -10.449 -10.227 -25.684 -0.72656 -35.133 c 9.5 -9.4531 24.867 -9.4102 34.316 0.089844 c 9.4531 -9.5039 24.816 -9.543 34.316 -0.089844 c 9.5 9.4492 9.7227 24.684 -0.72656 35.133 z m -39.773 27.414 c 2.9883 2.9883 5.2344 5.2383 6.1836 6.1836 c 0.94922 -0.94922 3.1953 -3.1953 6.1836 -6.1836 v -14.145 h -12.363 v 14.145 z" stroke-linecap="round"/>
  </g>
  <g transform="matrix(1, 0, 0, 1, 650.099558, 247.978062)" style="">
    <path fill="#545454" opacity="1" d=""/>
  </g>
</svg>